<mxfile host="app.diagrams.net" modified="2024-06-02T18:03:06.250Z" agent="Mozilla/5.0 (Windows NT 10.0; Win64; x64) AppleWebKit/537.36 (KHTML, like Gecko) Chrome/125.0.0.0 Safari/537.36" etag="skPJu4XW3SFtzw26Mql0" version="24.4.13" type="device">
  <diagram name="Page-1" id="luediHqik0dXqKViBkO_">
    <mxGraphModel dx="1615" dy="803" grid="1" gridSize="10" guides="1" tooltips="1" connect="1" arrows="1" fold="1" page="1" pageScale="1" pageWidth="850" pageHeight="1100" math="0" shadow="0">
      <root>
        <mxCell id="0" />
        <mxCell id="1" parent="0" />
        <mxCell id="I6jlp43hXR9_M5Y7e2dG-6" value="" style="image;points=[];aspect=fixed;html=1;align=center;shadow=0;dashed=0;image=img/lib/allied_telesis/computer_and_terminals/Personal_Computer_with_Server.svg;" parent="1" vertex="1">
          <mxGeometry x="45.84" y="483.8" width="110" height="110" as="geometry" />
        </mxCell>
        <mxCell id="I6jlp43hXR9_M5Y7e2dG-7" value="" style="verticalLabelPosition=bottom;sketch=0;aspect=fixed;html=1;verticalAlign=top;strokeColor=none;align=center;outlineConnect=0;shape=mxgraph.citrix.dns_server;" parent="1" vertex="1">
          <mxGeometry x="70.84" y="685.6600000000001" width="66.16" height="80" as="geometry" />
        </mxCell>
        <mxCell id="I6jlp43hXR9_M5Y7e2dG-16" value="Client" style="text;strokeColor=none;align=center;fillColor=none;html=1;verticalAlign=middle;whiteSpace=wrap;rounded=0;" parent="1" vertex="1">
          <mxGeometry x="73.92" y="592.8" width="60" height="25" as="geometry" />
        </mxCell>
        <mxCell id="I6jlp43hXR9_M5Y7e2dG-29" style="edgeStyle=none;rounded=0;orthogonalLoop=1;jettySize=auto;html=1;" parent="1" edge="1">
          <mxGeometry relative="1" as="geometry">
            <mxPoint x="283" y="525.8" as="targetPoint" />
            <mxPoint x="170" y="525.8" as="sourcePoint" />
          </mxGeometry>
        </mxCell>
        <mxCell id="I6jlp43hXR9_M5Y7e2dG-30" style="edgeStyle=none;rounded=0;orthogonalLoop=1;jettySize=auto;html=1;" parent="1" edge="1">
          <mxGeometry relative="1" as="geometry">
            <mxPoint x="170" y="543.8" as="targetPoint" />
            <mxPoint x="283" y="543.8" as="sourcePoint" />
          </mxGeometry>
        </mxCell>
        <mxCell id="I6jlp43hXR9_M5Y7e2dG-19" value="DNS Server" style="text;strokeColor=none;align=center;fillColor=none;html=1;verticalAlign=middle;whiteSpace=wrap;rounded=0;" parent="1" vertex="1">
          <mxGeometry x="69" y="766.6600000000001" width="60" height="30" as="geometry" />
        </mxCell>
        <mxCell id="I6jlp43hXR9_M5Y7e2dG-31" value="&lt;b&gt;&amp;nbsp; foobar.com Linux Server 1&lt;/b&gt;" style="points=[[0,0],[0.25,0],[0.5,0],[0.75,0],[1,0],[1,0.25],[1,0.5],[1,0.75],[1,1],[0.75,1],[0.5,1],[0.25,1],[0,1],[0,0.75],[0,0.5],[0,0.25]];outlineConnect=0;gradientColor=none;html=1;whiteSpace=wrap;fontSize=12;fontStyle=0;container=1;pointerEvents=0;collapsible=0;recursiveResize=0;shape=mxgraph.aws4.group;grIcon=mxgraph.aws4.group_on_premise;strokeColor=#7D8998;fillColor=none;verticalAlign=top;align=left;spacingLeft=30;fontColor=#5A6C86;dashed=0;" parent="1" vertex="1">
          <mxGeometry x="513" y="30" width="320" height="470" as="geometry" />
        </mxCell>
        <mxCell id="I6jlp43hXR9_M5Y7e2dG-36" value="&lt;table&gt;&lt;tbody&gt;&lt;tr&gt;&lt;td&gt;DNS Database&lt;hr&gt;&lt;b&gt;&lt;u&gt;Type&lt;span style=&quot;white-space: pre;&quot;&gt;&#x9;&lt;/span&gt;Domanin Name&lt;span style=&quot;white-space: pre;&quot;&gt;&#x9;&lt;/span&gt;IP Address&lt;/u&gt;&lt;/b&gt;&lt;/td&gt;&lt;td&gt;&lt;br&gt;&lt;/td&gt;&lt;td&gt;&lt;br&gt;&lt;/td&gt;&lt;/tr&gt;&lt;tr&gt;&lt;td&gt;A&lt;span style=&quot;white-space: pre;&quot;&gt;&#x9;&lt;/span&gt;&lt;span style=&quot;white-space: pre;&quot;&gt;&#x9;&lt;/span&gt;foobar.com&lt;span style=&quot;white-space: pre;&quot;&gt;&#x9;&lt;/span&gt;&lt;span style=&quot;white-space: pre;&quot;&gt;&#x9;&lt;/span&gt;&lt;span style=&quot;color: rgb(199, 37, 78); font-family: Menlo, Monaco, Consolas, &amp;quot;Courier New&amp;quot;, monospace; font-size: 12.6px; background-color: rgb(249, 242, 244);&quot;&gt;8.8.8.8&lt;/span&gt;&#x9;&lt;br&gt;&lt;/td&gt;&lt;td&gt;&lt;br&gt;&lt;/td&gt;&lt;td&gt;&lt;br&gt;&lt;/td&gt;&lt;/tr&gt;&lt;tr&gt;&lt;td&gt;CNAME&lt;span style=&quot;white-space: pre;&quot;&gt;&#x9;&lt;/span&gt;www.foobar.com&lt;span style=&quot;white-space: pre;&quot;&gt;&#x9;&lt;/span&gt;foobar.com&lt;/td&gt;&lt;td&gt;&lt;br&gt;&lt;/td&gt;&lt;td&gt;&lt;br&gt;&lt;/td&gt;&lt;/tr&gt;&lt;/tbody&gt;&lt;/table&gt;" style="text;strokeColor=none;align=left;fillColor=none;html=1;verticalAlign=middle;whiteSpace=wrap;rounded=0;" parent="1" vertex="1">
          <mxGeometry x="40" y="807.9300000000001" width="245" height="80" as="geometry" />
        </mxCell>
        <mxCell id="I6jlp43hXR9_M5Y7e2dG-39" value="Application Server" style="text;strokeColor=none;align=center;fillColor=none;html=1;verticalAlign=middle;whiteSpace=wrap;rounded=0;" parent="1" vertex="1">
          <mxGeometry x="533" y="315" width="106.64" height="18" as="geometry" />
        </mxCell>
        <mxCell id="TjRENbPCBX0Kt2JWYsnZ-2" value="" style="sketch=0;outlineConnect=0;fontColor=#232F3E;gradientColor=none;fillColor=#0c4688;strokeColor=none;dashed=0;verticalLabelPosition=bottom;verticalAlign=top;align=center;html=1;fontSize=12;fontStyle=0;aspect=fixed;pointerEvents=1;shape=mxgraph.aws4.source_code;" parent="1" vertex="1">
          <mxGeometry x="742.06" y="242" width="51.87" height="71" as="geometry" />
        </mxCell>
        <mxCell id="I6jlp43hXR9_M5Y7e2dG-42" value="" style="image;aspect=fixed;html=1;points=[];align=center;fontSize=12;image=img/lib/azure2/databases/Azure_Database_MySQL_Server.svg;" parent="1" vertex="1">
          <mxGeometry x="557.67" y="400" width="54.2" height="72.27" as="geometry" />
        </mxCell>
        <mxCell id="I6jlp43hXR9_M5Y7e2dG-49" value="MySQL Database" style="text;strokeColor=none;align=center;fillColor=none;html=1;verticalAlign=middle;whiteSpace=wrap;rounded=0;" parent="1" vertex="1">
          <mxGeometry x="537.67" y="477.14" width="100" height="20" as="geometry" />
        </mxCell>
        <mxCell id="TjRENbPCBX0Kt2JWYsnZ-3" value="Code Base" style="text;strokeColor=none;align=center;fillColor=none;html=1;verticalAlign=middle;whiteSpace=wrap;rounded=0;" parent="1" vertex="1">
          <mxGeometry x="733" y="313" width="70" height="20" as="geometry" />
        </mxCell>
        <mxCell id="TjRENbPCBX0Kt2JWYsnZ-9" style="edgeStyle=none;rounded=0;orthogonalLoop=1;jettySize=auto;html=1;exitX=1;exitY=0.25;exitDx=0;exitDy=0;" parent="1" edge="1">
          <mxGeometry relative="1" as="geometry">
            <mxPoint x="713" y="280" as="targetPoint" />
            <mxPoint x="653" y="281.0000000000001" as="sourcePoint" />
          </mxGeometry>
        </mxCell>
        <mxCell id="TjRENbPCBX0Kt2JWYsnZ-10" style="edgeStyle=none;rounded=0;orthogonalLoop=1;jettySize=auto;html=1;" parent="1" edge="1">
          <mxGeometry relative="1" as="geometry">
            <mxPoint x="653" y="300.0000000000001" as="targetPoint" />
            <mxPoint x="713" y="300" as="sourcePoint" />
          </mxGeometry>
        </mxCell>
        <mxCell id="I6jlp43hXR9_M5Y7e2dG-47" style="edgeStyle=none;rounded=0;orthogonalLoop=1;jettySize=auto;html=1;" parent="1" edge="1">
          <mxGeometry relative="1" as="geometry">
            <mxPoint x="577" y="171.73000000000002" as="targetPoint" />
            <mxPoint x="577" y="223" as="sourcePoint" />
          </mxGeometry>
        </mxCell>
        <mxCell id="I6jlp43hXR9_M5Y7e2dG-48" style="edgeStyle=none;rounded=0;orthogonalLoop=1;jettySize=auto;html=1;" parent="1" edge="1">
          <mxGeometry relative="1" as="geometry">
            <mxPoint x="596" y="223" as="targetPoint" />
            <mxPoint x="596" y="171.73000000000002" as="sourcePoint" />
          </mxGeometry>
        </mxCell>
        <mxCell id="I6jlp43hXR9_M5Y7e2dG-34" value="" style="sketch=0;aspect=fixed;pointerEvents=1;shadow=0;dashed=0;html=1;strokeColor=none;labelPosition=center;verticalLabelPosition=bottom;verticalAlign=top;align=center;fillColor=#00188D;shape=mxgraph.mscae.enterprise.application_server2" parent="1" vertex="1">
          <mxGeometry x="561" y="233" width="70.52" height="82" as="geometry" />
        </mxCell>
        <mxCell id="TjRENbPCBX0Kt2JWYsnZ-14" style="edgeStyle=none;rounded=0;orthogonalLoop=1;jettySize=auto;html=1;" parent="1" edge="1">
          <mxGeometry relative="1" as="geometry">
            <mxPoint x="573.95" y="340.73" as="targetPoint" />
            <mxPoint x="573.95" y="392" as="sourcePoint" />
          </mxGeometry>
        </mxCell>
        <mxCell id="TjRENbPCBX0Kt2JWYsnZ-15" style="edgeStyle=none;rounded=0;orthogonalLoop=1;jettySize=auto;html=1;" parent="1" edge="1">
          <mxGeometry relative="1" as="geometry">
            <mxPoint x="596.95" y="392" as="targetPoint" />
            <mxPoint x="596.95" y="340.73" as="sourcePoint" />
          </mxGeometry>
        </mxCell>
        <mxCell id="TjRENbPCBX0Kt2JWYsnZ-16" value="" style="sketch=0;aspect=fixed;pointerEvents=1;shadow=0;dashed=0;html=1;strokeColor=none;labelPosition=center;verticalLabelPosition=bottom;verticalAlign=top;align=center;fillColor=#00188D;shape=mxgraph.mscae.enterprise.web_server" parent="1" vertex="1">
          <mxGeometry x="557.27" y="64" width="60.8" height="80" as="geometry" />
        </mxCell>
        <mxCell id="TjRENbPCBX0Kt2JWYsnZ-17" value="Nginx Server" style="text;strokeColor=none;align=center;fillColor=none;html=1;verticalAlign=middle;whiteSpace=wrap;rounded=0;" parent="1" vertex="1">
          <mxGeometry x="533.9300000000001" y="144" width="106.64" height="18" as="geometry" />
        </mxCell>
        <mxCell id="TjRENbPCBX0Kt2JWYsnZ-19" style="edgeStyle=none;rounded=0;orthogonalLoop=1;jettySize=auto;html=1;" parent="1" edge="1">
          <mxGeometry relative="1" as="geometry">
            <mxPoint x="631.52" y="100.00000000000001" as="targetPoint" />
            <mxPoint x="763" y="220" as="sourcePoint" />
            <Array as="points">
              <mxPoint x="763" y="100.00000000000001" />
            </Array>
          </mxGeometry>
        </mxCell>
        <mxCell id="TjRENbPCBX0Kt2JWYsnZ-22" style="edgeStyle=none;rounded=0;orthogonalLoop=1;jettySize=auto;html=1;" parent="1" edge="1">
          <mxGeometry relative="1" as="geometry">
            <mxPoint x="92.06" y="625.6600000000001" as="targetPoint" />
            <mxPoint x="92.06" y="676.9300000000001" as="sourcePoint" />
          </mxGeometry>
        </mxCell>
        <mxCell id="TjRENbPCBX0Kt2JWYsnZ-23" style="edgeStyle=none;rounded=0;orthogonalLoop=1;jettySize=auto;html=1;" parent="1" edge="1">
          <mxGeometry relative="1" as="geometry">
            <mxPoint x="115.06" y="676.9300000000001" as="targetPoint" />
            <mxPoint x="115.06" y="625.6600000000001" as="sourcePoint" />
          </mxGeometry>
        </mxCell>
        <mxCell id="7bQOIMMHuxMf3h_n53OH-1" value="HTTP Response" style="text;strokeColor=none;align=center;fillColor=none;html=1;verticalAlign=middle;whiteSpace=wrap;rounded=0;" parent="1" vertex="1">
          <mxGeometry x="170" y="552.8" width="100" height="25" as="geometry" />
        </mxCell>
        <mxCell id="7bQOIMMHuxMf3h_n53OH-2" value="HTTP Request" style="text;strokeColor=none;align=center;fillColor=none;html=1;verticalAlign=middle;whiteSpace=wrap;rounded=0;" parent="1" vertex="1">
          <mxGeometry x="170" y="493.8" width="100" height="25" as="geometry" />
        </mxCell>
        <mxCell id="WhKH9Ss32SUy4Tv57kXH-2" value="&lt;b&gt;&amp;nbsp; foobar.com Linux Server 2&lt;/b&gt;" style="points=[[0,0],[0.25,0],[0.5,0],[0.75,0],[1,0],[1,0.25],[1,0.5],[1,0.75],[1,1],[0.75,1],[0.5,1],[0.25,1],[0,1],[0,0.75],[0,0.5],[0,0.25]];outlineConnect=0;gradientColor=none;html=1;whiteSpace=wrap;fontSize=12;fontStyle=0;container=1;pointerEvents=0;collapsible=0;recursiveResize=0;shape=mxgraph.aws4.group;grIcon=mxgraph.aws4.group_on_premise;strokeColor=#7D8998;fillColor=none;verticalAlign=top;align=left;spacingLeft=30;fontColor=#5A6C86;dashed=0;" vertex="1" parent="1">
          <mxGeometry x="513" y="562.86" width="320" height="470" as="geometry" />
        </mxCell>
        <mxCell id="WhKH9Ss32SUy4Tv57kXH-3" value="Application Server" style="text;strokeColor=none;align=center;fillColor=none;html=1;verticalAlign=middle;whiteSpace=wrap;rounded=0;" vertex="1" parent="1">
          <mxGeometry x="533" y="847.86" width="106.64" height="18" as="geometry" />
        </mxCell>
        <mxCell id="WhKH9Ss32SUy4Tv57kXH-4" value="" style="sketch=0;outlineConnect=0;fontColor=#232F3E;gradientColor=none;fillColor=#094386;strokeColor=none;dashed=0;verticalLabelPosition=bottom;verticalAlign=top;align=center;html=1;fontSize=12;fontStyle=0;aspect=fixed;pointerEvents=1;shape=mxgraph.aws4.source_code;" vertex="1" parent="1">
          <mxGeometry x="742.06" y="774.86" width="51.87" height="71" as="geometry" />
        </mxCell>
        <mxCell id="WhKH9Ss32SUy4Tv57kXH-5" value="" style="image;aspect=fixed;html=1;points=[];align=center;fontSize=12;image=img/lib/azure2/databases/Azure_Database_MySQL_Server.svg;" vertex="1" parent="1">
          <mxGeometry x="557.67" y="932.86" width="54.2" height="72.27" as="geometry" />
        </mxCell>
        <mxCell id="WhKH9Ss32SUy4Tv57kXH-6" value="MySQL Database" style="text;strokeColor=none;align=center;fillColor=none;html=1;verticalAlign=middle;whiteSpace=wrap;rounded=0;" vertex="1" parent="1">
          <mxGeometry x="537.67" y="1009.9999999999999" width="100" height="20" as="geometry" />
        </mxCell>
        <mxCell id="WhKH9Ss32SUy4Tv57kXH-7" value="Code Base" style="text;strokeColor=none;align=center;fillColor=none;html=1;verticalAlign=middle;whiteSpace=wrap;rounded=0;" vertex="1" parent="1">
          <mxGeometry x="733" y="845.86" width="70" height="20" as="geometry" />
        </mxCell>
        <mxCell id="WhKH9Ss32SUy4Tv57kXH-8" style="edgeStyle=none;rounded=0;orthogonalLoop=1;jettySize=auto;html=1;exitX=1;exitY=0.25;exitDx=0;exitDy=0;" edge="1" parent="1">
          <mxGeometry relative="1" as="geometry">
            <mxPoint x="713" y="812.86" as="targetPoint" />
            <mxPoint x="653" y="813.8600000000001" as="sourcePoint" />
          </mxGeometry>
        </mxCell>
        <mxCell id="WhKH9Ss32SUy4Tv57kXH-9" style="edgeStyle=none;rounded=0;orthogonalLoop=1;jettySize=auto;html=1;" edge="1" parent="1">
          <mxGeometry relative="1" as="geometry">
            <mxPoint x="653" y="832.8600000000001" as="targetPoint" />
            <mxPoint x="713" y="832.86" as="sourcePoint" />
          </mxGeometry>
        </mxCell>
        <mxCell id="WhKH9Ss32SUy4Tv57kXH-10" style="edgeStyle=none;rounded=0;orthogonalLoop=1;jettySize=auto;html=1;" edge="1" parent="1">
          <mxGeometry relative="1" as="geometry">
            <mxPoint x="577" y="704.59" as="targetPoint" />
            <mxPoint x="577" y="755.86" as="sourcePoint" />
          </mxGeometry>
        </mxCell>
        <mxCell id="WhKH9Ss32SUy4Tv57kXH-11" style="edgeStyle=none;rounded=0;orthogonalLoop=1;jettySize=auto;html=1;" edge="1" parent="1">
          <mxGeometry relative="1" as="geometry">
            <mxPoint x="596" y="755.86" as="targetPoint" />
            <mxPoint x="596" y="704.59" as="sourcePoint" />
          </mxGeometry>
        </mxCell>
        <mxCell id="WhKH9Ss32SUy4Tv57kXH-12" value="" style="sketch=0;aspect=fixed;pointerEvents=1;shadow=0;dashed=0;html=1;strokeColor=none;labelPosition=center;verticalLabelPosition=bottom;verticalAlign=top;align=center;fillColor=#00188D;shape=mxgraph.mscae.enterprise.application_server2" vertex="1" parent="1">
          <mxGeometry x="561" y="765.86" width="70.52" height="82" as="geometry" />
        </mxCell>
        <mxCell id="WhKH9Ss32SUy4Tv57kXH-13" style="edgeStyle=none;rounded=0;orthogonalLoop=1;jettySize=auto;html=1;" edge="1" parent="1">
          <mxGeometry relative="1" as="geometry">
            <mxPoint x="573.95" y="873.59" as="targetPoint" />
            <mxPoint x="573.95" y="924.86" as="sourcePoint" />
          </mxGeometry>
        </mxCell>
        <mxCell id="WhKH9Ss32SUy4Tv57kXH-14" style="edgeStyle=none;rounded=0;orthogonalLoop=1;jettySize=auto;html=1;" edge="1" parent="1">
          <mxGeometry relative="1" as="geometry">
            <mxPoint x="596.95" y="924.86" as="targetPoint" />
            <mxPoint x="596.95" y="873.59" as="sourcePoint" />
          </mxGeometry>
        </mxCell>
        <mxCell id="WhKH9Ss32SUy4Tv57kXH-15" value="" style="sketch=0;aspect=fixed;pointerEvents=1;shadow=0;dashed=0;html=1;strokeColor=none;labelPosition=center;verticalLabelPosition=bottom;verticalAlign=top;align=center;fillColor=#00188D;shape=mxgraph.mscae.enterprise.web_server" vertex="1" parent="1">
          <mxGeometry x="557.27" y="596.86" width="60.8" height="80" as="geometry" />
        </mxCell>
        <mxCell id="WhKH9Ss32SUy4Tv57kXH-16" value="Nginx Server" style="text;strokeColor=none;align=center;fillColor=none;html=1;verticalAlign=middle;whiteSpace=wrap;rounded=0;" vertex="1" parent="1">
          <mxGeometry x="533.9300000000001" y="676.86" width="106.64" height="18" as="geometry" />
        </mxCell>
        <mxCell id="WhKH9Ss32SUy4Tv57kXH-18" style="edgeStyle=none;rounded=0;orthogonalLoop=1;jettySize=auto;html=1;" edge="1" parent="1">
          <mxGeometry relative="1" as="geometry">
            <mxPoint x="631.52" y="632.86" as="targetPoint" />
            <mxPoint x="763" y="752.86" as="sourcePoint" />
            <Array as="points">
              <mxPoint x="763" y="632.86" />
            </Array>
          </mxGeometry>
        </mxCell>
        <mxCell id="WhKH9Ss32SUy4Tv57kXH-23" value="" style="outlineConnect=0;dashed=0;verticalLabelPosition=bottom;verticalAlign=top;align=center;html=1;shape=mxgraph.aws3.application_load_balancer;fillColor=#0a26b2;gradientColor=none;direction=north;" vertex="1" parent="1">
          <mxGeometry x="300" y="486" width="90" height="90" as="geometry" />
        </mxCell>
        <mxCell id="WhKH9Ss32SUy4Tv57kXH-24" style="edgeStyle=none;rounded=0;orthogonalLoop=1;jettySize=auto;html=1;" edge="1" parent="1">
          <mxGeometry relative="1" as="geometry">
            <mxPoint x="493" y="255.57999999999996" as="targetPoint" />
            <mxPoint x="330" y="480" as="sourcePoint" />
            <Array as="points">
              <mxPoint x="330" y="256" />
            </Array>
          </mxGeometry>
        </mxCell>
        <mxCell id="WhKH9Ss32SUy4Tv57kXH-25" style="edgeStyle=none;rounded=0;orthogonalLoop=1;jettySize=auto;html=1;" edge="1" parent="1">
          <mxGeometry relative="1" as="geometry">
            <mxPoint x="350" y="480" as="targetPoint" />
            <mxPoint x="493" y="273.5799999999999" as="sourcePoint" />
            <Array as="points">
              <mxPoint x="350" y="274" />
            </Array>
          </mxGeometry>
        </mxCell>
        <mxCell id="WhKH9Ss32SUy4Tv57kXH-26" style="edgeStyle=none;rounded=0;orthogonalLoop=1;jettySize=auto;html=1;" edge="1" parent="1">
          <mxGeometry relative="1" as="geometry">
            <mxPoint x="497" y="796.3299999999999" as="targetPoint" />
            <mxPoint x="360" y="590" as="sourcePoint" />
            <Array as="points">
              <mxPoint x="360" y="796" />
            </Array>
          </mxGeometry>
        </mxCell>
        <mxCell id="WhKH9Ss32SUy4Tv57kXH-27" style="edgeStyle=none;rounded=0;orthogonalLoop=1;jettySize=auto;html=1;" edge="1" parent="1">
          <mxGeometry relative="1" as="geometry">
            <mxPoint x="335" y="580" as="targetPoint" />
            <mxPoint x="490" y="820" as="sourcePoint" />
            <Array as="points">
              <mxPoint x="335" y="820" />
            </Array>
          </mxGeometry>
        </mxCell>
        <mxCell id="WhKH9Ss32SUy4Tv57kXH-28" value="HAproxy Load Balancer Server with IP address of foobar.com" style="text;strokeColor=none;align=left;fillColor=none;html=1;verticalAlign=middle;whiteSpace=wrap;rounded=0;" vertex="1" parent="1">
          <mxGeometry x="400" y="505.25" width="100" height="51.5" as="geometry" />
        </mxCell>
      </root>
    </mxGraphModel>
  </diagram>
</mxfile>
